<mxfile host="app.diagrams.net" modified="2022-06-14T20:28:21.324Z" agent="5.0 (Windows NT 10.0; Win64; x64) AppleWebKit/537.36 (KHTML, like Gecko) Chrome/102.0.0.0 Safari/537.36" etag="Gw-AM9tgD67XToEPqDDF" version="20.0.1" type="github">
  <diagram id="C5RBs43oDa-KdzZeNtuy" name="Page-1">
    <mxGraphModel dx="1531" dy="746" grid="1" gridSize="10" guides="1" tooltips="1" connect="1" arrows="1" fold="1" page="1" pageScale="1" pageWidth="827" pageHeight="1169" math="0" shadow="0">
      <root>
        <mxCell id="WIyWlLk6GJQsqaUBKTNV-0" />
        <mxCell id="WIyWlLk6GJQsqaUBKTNV-1" parent="WIyWlLk6GJQsqaUBKTNV-0" />
        <mxCell id="pYjVY-JEQ_LnPZKkeauX-10" value="" style="edgeStyle=orthogonalEdgeStyle;rounded=0;orthogonalLoop=1;jettySize=auto;html=1;" edge="1" parent="WIyWlLk6GJQsqaUBKTNV-1" source="QDIY9g1QH0olKaeoGVjd-0" target="pYjVY-JEQ_LnPZKkeauX-9">
          <mxGeometry relative="1" as="geometry" />
        </mxCell>
        <mxCell id="QDIY9g1QH0olKaeoGVjd-0" value="Ready For&amp;nbsp;&lt;br&gt;The Test?" style="shape=parallelogram;perimeter=parallelogramPerimeter;whiteSpace=wrap;html=1;fixedSize=1;" parent="WIyWlLk6GJQsqaUBKTNV-1" vertex="1">
          <mxGeometry x="160" y="60" width="120" height="60" as="geometry" />
        </mxCell>
        <mxCell id="QDIY9g1QH0olKaeoGVjd-1" value="Ready&amp;lt;--answer" style="rounded=0;whiteSpace=wrap;html=1;" parent="WIyWlLk6GJQsqaUBKTNV-1" vertex="1">
          <mxGeometry x="160" y="180" width="120" height="60" as="geometry" />
        </mxCell>
        <mxCell id="pYjVY-JEQ_LnPZKkeauX-15" value="" style="edgeStyle=orthogonalEdgeStyle;rounded=0;orthogonalLoop=1;jettySize=auto;html=1;" edge="1" parent="WIyWlLk6GJQsqaUBKTNV-1" source="pYjVY-JEQ_LnPZKkeauX-2" target="pYjVY-JEQ_LnPZKkeauX-3">
          <mxGeometry relative="1" as="geometry" />
        </mxCell>
        <mxCell id="pYjVY-JEQ_LnPZKkeauX-2" value="Print &quot;You will be asked 10 questions&quot;" style="shape=parallelogram;perimeter=parallelogramPerimeter;whiteSpace=wrap;html=1;fixedSize=1;" vertex="1" parent="WIyWlLk6GJQsqaUBKTNV-1">
          <mxGeometry x="320" y="265" width="140" height="70" as="geometry" />
        </mxCell>
        <mxCell id="pYjVY-JEQ_LnPZKkeauX-6" value="" style="edgeStyle=orthogonalEdgeStyle;rounded=0;orthogonalLoop=1;jettySize=auto;html=1;" edge="1" parent="WIyWlLk6GJQsqaUBKTNV-1" source="pYjVY-JEQ_LnPZKkeauX-3" target="pYjVY-JEQ_LnPZKkeauX-5">
          <mxGeometry relative="1" as="geometry" />
        </mxCell>
        <mxCell id="pYjVY-JEQ_LnPZKkeauX-8" value="" style="edgeStyle=orthogonalEdgeStyle;rounded=0;orthogonalLoop=1;jettySize=auto;html=1;" edge="1" parent="WIyWlLk6GJQsqaUBKTNV-1" source="pYjVY-JEQ_LnPZKkeauX-3" target="pYjVY-JEQ_LnPZKkeauX-7">
          <mxGeometry relative="1" as="geometry" />
        </mxCell>
        <mxCell id="pYjVY-JEQ_LnPZKkeauX-3" value="ans2&amp;lt;=10" style="rhombus;whiteSpace=wrap;html=1;" vertex="1" parent="WIyWlLk6GJQsqaUBKTNV-1">
          <mxGeometry x="350" y="400" width="80" height="80" as="geometry" />
        </mxCell>
        <mxCell id="pYjVY-JEQ_LnPZKkeauX-5" value="points&amp;lt;--points+1" style="whiteSpace=wrap;html=1;fillColor=#d5e8d4;strokeColor=#82b366;" vertex="1" parent="WIyWlLk6GJQsqaUBKTNV-1">
          <mxGeometry x="500" y="500" width="120" height="60" as="geometry" />
        </mxCell>
        <mxCell id="pYjVY-JEQ_LnPZKkeauX-7" value="points&amp;lt;--points-2" style="whiteSpace=wrap;html=1;fillColor=#f8cecc;strokeColor=#b85450;" vertex="1" parent="WIyWlLk6GJQsqaUBKTNV-1">
          <mxGeometry x="160" y="510" width="120" height="60" as="geometry" />
        </mxCell>
        <mxCell id="pYjVY-JEQ_LnPZKkeauX-14" value="" style="edgeStyle=orthogonalEdgeStyle;rounded=0;orthogonalLoop=1;jettySize=auto;html=1;" edge="1" parent="WIyWlLk6GJQsqaUBKTNV-1" source="pYjVY-JEQ_LnPZKkeauX-9" target="pYjVY-JEQ_LnPZKkeauX-2">
          <mxGeometry relative="1" as="geometry" />
        </mxCell>
        <mxCell id="pYjVY-JEQ_LnPZKkeauX-17" value="" style="edgeStyle=orthogonalEdgeStyle;rounded=0;orthogonalLoop=1;jettySize=auto;html=1;" edge="1" parent="WIyWlLk6GJQsqaUBKTNV-1" source="pYjVY-JEQ_LnPZKkeauX-9" target="pYjVY-JEQ_LnPZKkeauX-16">
          <mxGeometry relative="1" as="geometry" />
        </mxCell>
        <mxCell id="pYjVY-JEQ_LnPZKkeauX-9" value="If Ready=Yes" style="rhombus;whiteSpace=wrap;html=1;" vertex="1" parent="WIyWlLk6GJQsqaUBKTNV-1">
          <mxGeometry x="180" y="260" width="80" height="80" as="geometry" />
        </mxCell>
        <mxCell id="pYjVY-JEQ_LnPZKkeauX-16" value="Print &quot;Thanks For&lt;br&gt;Using This code to&lt;br&gt;find out if you know&lt;br&gt;anything about games&lt;br&gt;" style="shape=parallelogram;perimeter=parallelogramPerimeter;whiteSpace=wrap;html=1;fixedSize=1;" vertex="1" parent="WIyWlLk6GJQsqaUBKTNV-1">
          <mxGeometry x="-20" y="265" width="130" height="70" as="geometry" />
        </mxCell>
      </root>
    </mxGraphModel>
  </diagram>
</mxfile>
